<svg xmlns="http://www.w3.org/2000/svg" xmlns:svg="http://www.w3.org/2000/svg" id="svg4669" width="1024" height="900" version="1.1"><metadata id="metadata4675"/><path id="path4469" d="m 704.25598,562.3653 226,103 -67,-149 z" style="fill:#c1e8e1;stroke:#c1e8e1;stroke-width:1.50999999"/><path id="path4471" d="m 704.25598,562.3653 101,260 125,-157 z" style="fill:#d3efeb;stroke:#d3efeb;stroke-width:1.50999999"/><path id="path4473" d="m 704.25598,562.3653 -7,256 108,4 z" style="fill:#ceede8;stroke:#ceede8;stroke-width:1.50999999"/><path id="path4475" d="m 930.25598,665.3653 198.00002,-168 -265.00002,19 z" style="fill:#c8eae3;stroke:#c8eae3;stroke-width:1.50999999"/><path id="path4477" d="m 805.25598,822.3653 267.00002,24 -142.00002,-181 z" style="fill:#e9f6fa;stroke:#e9f6fa;stroke-width:1.50999999"/><path id="path4479" d="m 937.25598,1253.3653 135.00002,-407 -267.00002,-24 z" style="fill:#f1f9fb;stroke:#f1f9fb;stroke-width:1.50999999"/><path id="path4481" d="m 1164.256,814.3653 -36,-317 -198.00002,168 z" style="fill:#e1f4f1;stroke:#e1f4f1;stroke-width:1.50999999"/><path id="path4483" d="m 863.25598,516.3653 -113,-380 -46,426 z" style="fill:#97d5be;stroke:#97d5be;stroke-width:1.50999999"/><path id="path4485" d="m 1128.256,497.3653 -172.00002,-209 -93,228 z" style="fill:#aedecf;stroke:#aedecf;stroke-width:1.50999999"/><path id="path4487" d="m 414.25598,771.3653 93,95 190,-48 z" style="fill:#b1e0d3;stroke:#b1e0d3;stroke-width:1.50999999"/><path id="path4489" d="m 697.25598,818.3653 -51,207 159,-203 z" style="fill:#d8f0eb;stroke:#d8f0eb;stroke-width:1.50999999"/><path id="path4491" d="m 1072.256,846.3653 92,-32 -234.00002,-149 z" style="fill:#eef9fb;stroke:#eef9fb;stroke-width:1.50999999"/><path id="path4493" d="m 266.25598,351.3653 148,420 290,-209 z" style="fill:#7dcaaf;stroke:#7dcaaf;stroke-width:1.50999999"/><path id="path4495" d="m 704.25598,562.3653 -290,209 283,47 z" style="fill:#b3e2d7;stroke:#b3e2d7;stroke-width:1.50999999"/><path id="path4497" d="m 623.25598,1129.3653 23,-104 -139,-159 z" style="fill:#c0e6dc;stroke:#c0e6dc;stroke-width:1.50999999"/><path id="path4499" d="m 507.25598,866.3653 139,159 51,-207 z" style="fill:#c4e8df;stroke:#c4e8df;stroke-width:1.50999999"/><path id="path4501" d="m 1231.256,1210.3653 170,-334 -237,-62 z" style="fill:#f7fcfd;stroke:#f7fcfd;stroke-width:1.50999999"/><path id="path4503" d="m 1164.256,814.3653 131,-119 -167,-198 z" style="fill:#e3f5f2;stroke:#e3f5f2;stroke-width:1.50999999"/><path id="path4505" d="m 1128.256,497.3653 88,-220 -260.00002,11 z" style="fill:#a6d9be;stroke:#a6d9be;stroke-width:1.50999999"/><path id="path4507" d="m 956.25598,288.3653 -206,-152 113,380 z" style="fill:#93cfb1;stroke:#93cfb1;stroke-width:1.50999999"/><path id="path4509" d="m 646.25598,1025.3653 291,228 -132,-431 z" style="fill:#e5f5f3;stroke:#e5f5f3;stroke-width:1.50999999"/><path id="path4511" d="m 391.25598,1287.3653 232,-158 -116,-263 z" style="fill:#b1dfcf;stroke:#b1dfcf;stroke-width:1.50999999"/><path id="path4513" d="m 1367.256,425.3653 -151,-148 -88,220 z" style="fill:#acdcc8;stroke:#acdcc8;stroke-width:1.50999999"/><path id="path4515" d="m 956.25598,288.3653 -54,-352 -152,200 z" style="fill:#7fb28f;stroke:#7fb28f;stroke-width:1.50999999"/><path id="path4517" d="m 750.25598,136.3653 -289,16 243,410 z" style="fill:#6cbd96;stroke:#6cbd96;stroke-width:1.50999999"/><path id="path4519" d="m 1295.256,695.3653 72,-270 -239,72 z" style="fill:#c7e9e1;stroke:#c7e9e1;stroke-width:1.50999999"/><path id="path4521" d="m 461.25598,152.3653 -195,199 438,211 z" style="fill:#55b98d;stroke:#55b98d;stroke-width:1.50999999"/><path id="path4523" d="m 623.25598,1129.3653 314,124 -291,-228 z" style="fill:#dcf2ee;stroke:#dcf2ee;stroke-width:1.50999999"/><path id="path4525" d="m 1164.256,814.3653 237,62 -106,-181 z" style="fill:#f0f9fc;stroke:#f0f9fc;stroke-width:1.50999999"/><path id="path4527" d="m 1295.256,695.3653 106,181 -34,-451 z" style="fill:#e2f4f2;stroke:#e2f4f2;stroke-width:1.50999999"/><path id="path4529" d="m 1231.256,1210.3653 -67,-396 -92,32 z" style="fill:#f7fcfd;stroke:#f7fcfd;stroke-width:1.50999999"/><path id="path4531" d="m 201.25598,198.3653 -97,201 162,-48 z" style="fill:#2c9455;stroke:#2c9455;stroke-width:1.50999999"/><path id="path4533" d="m 750.25598,136.3653 -203,-99 -86,115 z" style="fill:#4f9f72;stroke:#4f9f72;stroke-width:1.50999999"/><path id="path4535" d="m 902.25598,-63.6347 -355,101 203,99 z" style="fill:#669c7b;stroke:#669c7b;stroke-width:1.50999999"/><path id="path4537" d="m 414.25598,771.3653 -253,71 346,24 z" style="fill:#9bd0b2;stroke:#9bd0b2;stroke-width:1.50999999"/><path id="path4539" d="m 10.255979,629.3653 151.000001,213 253,-71 z" style="fill:#82b793;stroke:#82b793;stroke-width:1.50999999"/><path id="path4541" d="m 1096.256,-140.6347 -194.00002,77 54,352 z" style="fill:#7fa488;stroke:#7fa488;stroke-width:1.50999999"/><path id="path4543" d="m 1096.256,-140.6347 -140.00002,429 260.00002,-11 z" style="fill:#8dba95;stroke:#8dba95;stroke-width:1.50999999"/><path id="path4545" d="m 937.25598,1253.3653 294.00002,-43 -159,-364 z" style="fill:#f7fcfd;stroke:#f7fcfd;stroke-width:1.50999999"/><path id="path4547" d="m 266.25598,351.3653 -256.000001,278 404.000001,142 z" style="fill:#6ab187;stroke:#6ab187;stroke-width:1.50999999"/><path id="path4549" d="m 201.25598,198.3653 65,153 195,-199 z" style="fill:#2e9654;stroke:#2e9654;stroke-width:1.50999999"/><path id="path4551" d="m 234.25598,6.3653003 -33,191.9999997 260,-46 z" style="fill:#1e8543;stroke:#1e8543;stroke-width:1.50999999"/><path id="path4553" d="m 1367.256,425.3653 87,-226 -238,78 z" style="fill:#9fd2b2;stroke:#9fd2b2;stroke-width:1.50999999"/><path id="path4555" d="m 1401.256,876.3653 53,-677 -87,226 z" style="fill:#bfe6db;stroke:#bfe6db;stroke-width:1.50999999"/><path id="path4557" d="m 623.25598,1129.3653 -232,158 546,-34 z" style="fill:#cbebe4;stroke:#cbebe4;stroke-width:1.50999999"/><path id="path4559" d="m 161.25598,842.3653 230,445 116,-421 z" style="fill:#9fd1b1;stroke:#9fd1b1;stroke-width:1.50999999"/><path id="path4561" d="m 104.25598,399.3653 -94.000001,230 256.000001,-278 z" style="fill:#43996a;stroke:#43996a;stroke-width:1.50999999"/><path id="path4563" d="m 161.25598,842.3653 -144.000001,393 374.000001,52 z" style="fill:#8ebb96;stroke:#8ebb96;stroke-width:1.50999999"/><path id="path4565" d="m 1401.256,876.3653 9,287 44,-964 z" style="fill:#ebf8f9;stroke:#ebf8f9;stroke-width:1.50999999"/><path id="path4567" d="m 1231.256,1210.3653 179,-47 -9,-287 z" style="fill:#f7fcfd;stroke:#f7fcfd;stroke-width:1.50999999"/><path id="path4569" d="m 382.25598,-307.6347 -118,294 283,51 z" style="fill:#247849;stroke:#247849;stroke-width:1.50999999"/><path id="path4571" d="m 1454.256,199.3653 -358,-340 120,418 z" style="fill:#8ab691;stroke:#8ab691;stroke-width:1.50999999"/><path id="path4573" d="m 547.25598,37.3653 -283,-51 197,166 z" style="fill:#2c8854;stroke:#2c8854;stroke-width:1.50999999"/><path id="path4575" d="m 201.25598,198.3653 -217.000001,143 120.000001,58 z" style="fill:#24864c;stroke:#24864c;stroke-width:1.50999999"/><path id="path4577" d="m 104.25598,399.3653 -120.000001,-58 26,288 z" style="fill:#3c8862;stroke:#3c8862;stroke-width:1.50999999"/><path id="path4579" d="m 559.25598,-294.6347 -12,332 355,-101 z" style="fill:#558d70;stroke:#558d70;stroke-width:1.50999999"/><path id="path4581" d="m 264.25598,-13.6347 -30,20.0000003 227,145.9999997 z" style="fill:#1c7b40;stroke:#1c7b40;stroke-width:1.50999999"/><path id="path4583" d="m -170.74402,12.3653 154.999999,329 217.000001,-143 z" style="fill:#0d642d;stroke:#0d642d;stroke-width:1.50999999"/><path id="path4585" d="m -262.74402,613.3653 154,87 118.999999,-71 z" style="fill:#659378;stroke:#659378;stroke-width:1.50999999"/><path id="path4587" d="m 10.255979,629.3653 -118.999999,71 270,142 z" style="fill:#719b81;stroke:#719b81;stroke-width:1.50999999"/><path id="path4589" d="m 1003.256,-401.6347 -444.00002,107 343,231 z" style="fill:#6e967d;stroke:#6e967d;stroke-width:1.50999999"/><path id="path4591" d="m 264.25598,-13.6347 -161,-283 131,303.0000003 z" style="fill:#09602a;stroke:#09602a;stroke-width:1.50999999"/><path id="path4593" d="m 1096.256,-140.6347 -93,-261 -101.00002,338 z" style="fill:#7c9c83;stroke:#7c9c83;stroke-width:1.50999999"/><path id="path4595" d="m 1454.256,199.3653 -223,-436 -135,96 z" style="fill:#7d9c84;stroke:#7d9c84;stroke-width:1.50999999"/><path id="path4597" d="m -133.74402,1076.3653 150.999999,159 144.000001,-393 z" style="fill:#7e9f85;stroke:#7e9f85;stroke-width:1.50999999"/><path id="path4599" d="m 559.25598,-294.6347 -177,-13 165,345 z" style="fill:#337f59;stroke:#337f59;stroke-width:1.50999999"/><path id="path4601" d="m 234.25598,6.3653003 -405,5.9999997 372,186 z" style="fill:#006127;stroke:#006127;stroke-width:1.50999999"/><path id="path4603" d="m -187.74402,937.3653 54,139 295,-234 z" style="fill:#7d9c84;stroke:#7d9c84;stroke-width:1.50999999"/><path id="path4605" d="m -108.74402,700.3653 -79,237 349,-95 z" style="fill:#799a83;stroke:#799a83;stroke-width:1.50999999"/><path id="path4607" d="m -262.74402,613.3653 75,324 79,-237 z" style="fill:#729880;stroke:#729880;stroke-width:1.50999999"/><path id="path4609" d="m 1231.256,-236.6347 -228,-165 93,261 z" style="fill:#7d9c84;stroke:#7d9c84;stroke-width:1.50999999"/><path id="path4611" d="m 559.25598,-294.6347 444.00002,-107 -621.00002,94 z" style="fill:#518b6e;stroke:#518b6e;stroke-width:1.50999999"/><path id="path4613" d="m 1231.256,-236.6347 154,-117 -382,-48 z" style="fill:#7d9c84;stroke:#7d9c84;stroke-width:1.50999999"/><path id="path4615" d="m 1454.256,199.3653 53,-376 -276,-60 z" style="fill:#7d9c84;stroke:#7d9c84;stroke-width:1.50999999"/><path id="path4617" d="m 1410.256,1163.3653 97,-1340 -53,376 z" style="fill:#acdcc7;stroke:#acdcc7;stroke-width:1.50999999"/><path id="path4619" d="m -15.744021,341.3653 -246.999999,272 272.999999,16 z" style="fill:#4b8969;stroke:#4b8969;stroke-width:1.50999999"/><path id="path4621" d="m -255.74402,173.3653 -7,440 246.999999,-272 z" style="fill:#2c7b51;stroke:#2c7b51;stroke-width:1.50999999"/><path id="path4623" d="m 1507.256,-176.6347 -122,-177 -154,117 z" style="fill:#7d9c84;stroke:#7d9c84;stroke-width:1.50999999"/><path id="path4625" d="m 103.25598,-296.6347 -274,309 405,-5.9999997 z" style="fill:#004d1e;stroke:#004d1e;stroke-width:1.50999999"/><path id="path4627" d="m -170.74402,12.3653 -85,161 239.999999,168 z" style="fill:#0b622b;stroke:#0b622b;stroke-width:1.50999999"/><path id="path4629" d="m 382.25598,-307.6347 -279,11 161,283 z" style="fill:#10662f;stroke:#10662f;stroke-width:1.50999999"/><path id="path4631" d="m -484.74402,-352.6347 588,56 279,-11 z" style="fill:#00441b;stroke:#00441b;stroke-width:1.50999999"/><path id="path4633" d="m -430.74402,224.3653 -29,280 204,-331 z" style="fill:#1e7442;stroke:#1e7442;stroke-width:1.50999999"/><path id="path4635" d="m -255.74402,173.3653 -204,331 197,109 z" style="fill:#35805b;stroke:#35805b;stroke-width:1.50999999"/><path id="path4637" d="m -262.74402,613.3653 -184,352 259,-28 z" style="fill:#7a9b83;stroke:#7a9b83;stroke-width:1.50999999"/><path id="path4639" d="m -187.74402,937.3653 -187,246 241,-107 z" style="fill:#7d9c84;stroke:#7d9c84;stroke-width:1.50999999"/><path id="path4641" d="m -459.74402,504.3653 13,461 184,-352 z" style="fill:#6c967c;stroke:#6c967c;stroke-width:1.50999999"/><path id="path4643" d="m -133.74402,1076.3653 -241,107 391.999999,52 z" style="fill:#7d9c84;stroke:#7d9c84;stroke-width:1.50999999"/><path id="path4645" d="m -297.74402,-148.6347 42,322 85,-161 z" style="fill:#00491d;stroke:#00491d;stroke-width:1.50999999"/><path id="path4647" d="m -297.74402,-148.6347 -133,373 175,-51 z" style="fill:#052;stroke:#052;stroke-width:1.50999999"/><path id="path4649" d="m -446.74402,965.3653 72,218 187,-246 z" style="fill:#7d9c84;stroke:#7d9c84;stroke-width:1.50999999"/><path id="path4651" d="m 17.255979,1235.3653 -391.999999,-52 766,104 z" style="fill:#7e9e85;stroke:#7e9e85;stroke-width:1.50999999"/><path id="path4653" d="m 103.25598,-296.6347 -310,91 36,218 z" style="fill:#00441b;stroke:#00441b;stroke-width:1.50999999"/><path id="path4655" d="m -206.74402,-205.6347 -91,57 127,161 z" style="fill:#00441b;stroke:#00441b;stroke-width:1.50999999"/><path id="path4657" d="m -206.74402,-205.6347 -278,-147 187,204 z" style="fill:#00441b;stroke:#00441b;stroke-width:1.50999999"/><path id="path4659" d="m -297.74402,-148.6347 -187,-204 54,577 z" style="fill:#00441b;stroke:#00441b;stroke-width:1.50999999"/><path id="path4661" d="m -430.74402,224.3653 -54,-577 25,857 z" style="fill:#045b26;stroke:#045b26;stroke-width:1.50999999"/><path id="path4663" d="m -459.74402,504.3653 -25,-857 38,1318 z" style="fill:#2a7b50;stroke:#2a7b50;stroke-width:1.50999999"/><path id="path4665" d="m 103.25598,-296.6347 -588,-56 278,147 z" style="fill:#00441b;stroke:#00441b;stroke-width:1.50999999"/><path id="path4667" d="m 1003.256,-401.6347 -1488.00002,49 867,45 z" style="fill:#176c37;stroke:#176c37;stroke-width:1.50999999"/></svg>